<svg class="nav__mono" width="41" height="35" xmlns="http://www.w3.org/2000/svg"><g fill="#000" fill-rule="evenodd"><path d="M12.916 23.287a19.417 19.417 0 01-4.002-2.273 21.845 21.845 0 01-3.381-3.085c1.084-1.22 2.67-2.726 4.73-3.994.407-.251.835-.492 1.28-.721l-1.407-4.242a24.13 24.13 0 00-3.839 2.303 26.194 26.194 0 00-4.678 4.42C.58 16.956.048 17.849 0 17.93c.043.072.468.785 1.291 1.826a25.983 25.983 0 006.48 5.83 23.185 23.185 0 005.406 2.503 22.52 22.52 0 003.564.799l-1.604-4.838c-.78-.213-1.52-.47-2.221-.762M20.024 35l7.021-21.169a17.013 17.013 0 00-2.493-.887 16.886 16.886 0 00-1.752-.372l-2.776 8.37L13.078 0H8.415l11.61 35zM24.965 6.047a23.675 23.675 0 014.232 1.3L31.634 0H26.97l-2.006 6.047z"></path><path d="M32.28 10.273a23.154 23.154 0 00-5.405-2.502 22.778 22.778 0 00-6.137-1.02 23.207 23.207 0 00-4.088.231l1.42 4.283a18.485 18.485 0 012.536-.092c2.487.074 4.647.614 6.529 1.398a19.437 19.437 0 014.002 2.273 21.49 21.49 0 013.381 3.085 21.442 21.442 0 01-4.73 3.994 18.698 18.698 0 01-4.876 2.127l-1.606 4.84a22.516 22.516 0 005.534-1.52 23.818 23.818 0 004.914-2.787 26.194 26.194 0 004.678-4.421c1.038-1.258 1.57-2.15 1.619-2.232v-.001c-.043-.072-.468-.785-1.291-1.826a26.072 26.072 0 00-2.032-2.276 25.625 25.625 0 00-4.448-3.554"></path></g></svg>